<svg data-name="Layer 1" xmlns="http://www.w3.org/2000/svg" width="873.53" height="801.44" viewBox="0 0 873.53 801.44"><path d="M705.256 200.076c-29.237-21.857-75.031-42.529-125.639-56.713-46.078-12.916-91.021-19.151-126.56-17.559l-.185-4.133c35.962-1.61 81.372 4.677 127.862 17.708 51.08 14.317 97.37 35.233 127 57.384z" fill="#ccc"/><path d="M702.221 216.913a137.672 137.672 0 01-11.914 56.208q-.987 2.222-2.056 4.402a138.194 138.194 0 01-262.379-60.61q0-4.797.327-9.52.155-2.401.401-4.774a138.181 138.181 0 01275.621 14.294z" fill="#009a49"/><path d="M690.307 273.121q-.987 2.222-2.056 4.402-6.057.658-12.75.956c-3.695.165-7.497.248-11.381.248-33.932 0-74.767-6.263-116.485-17.954-46.49-13.032-88.551-31.26-118.437-51.328q-1.526-1.024-2.999-2.052.155-2.401.401-4.774 2.377 1.694 4.903 3.393c29.533 19.828 71.172 37.861 117.25 50.777 41.352 11.592 81.804 17.801 115.346 17.801q5.753 0 11.215-.244 7.956-.36 14.993-1.225z" opacity=".1" style="isolation:isolate"/><path d="M664.12 275.418c-33.93.001-74.768-6.263-116.484-17.955-46.49-13.03-88.553-31.259-118.438-51.327-30.51-20.486-44.816-40.673-40.284-56.841 4.531-16.168 27.245-25.979 63.958-27.624l.185 4.133c-17.144.768-31.116 3.317-41.528 7.574-10.386 4.247-16.655 9.978-18.632 17.034-1.978 7.055.4 15.21 7.065 24.236 6.682 9.048 17.294 18.487 31.542 28.054 29.53 19.829 71.17 37.862 117.25 50.777 41.353 11.591 81.8 17.802 115.346 17.803q5.75 0 11.213-.244c17.145-.769 31.117-3.317 41.528-7.574 10.386-4.247 16.655-9.978 18.633-17.034 3.55-12.669-7.18-29.131-30.218-46.354l2.478-3.313c11.854 8.863 20.63 17.599 26.082 25.965 5.845 8.969 7.743 17.32 5.641 24.82-4.532 16.167-27.246 25.977-63.958 27.623-3.695.165-7.494.247-11.379.247z" fill="#ccc"/><circle cx="567.702" cy="52.235" r="1.583" fill="#f2f2f2"/><circle cx="357.645" cy="119.801" r="2.724" fill="#ccc"/><circle cx="351.839" cy="226.413" r="5.381" fill="#ccc"/><circle cx="674.842" cy="61.735" r="3.586" fill="#ccc"/><circle cx="802.037" cy="210.579" r="5.823" fill="#ccc"/><circle cx="756.506" cy="117.58" r="2.498" fill="#ccc"/><circle cx="453.173" cy="85.485" r="3.897" fill="#ccc"/><circle cx="747.762" cy="198.772" r="2.498" fill="#ccc"/><circle cx="364.506" cy="302.413" r="3.109" fill="#ccc"/><circle cx="427.312" cy="345.691" r="3.367" fill="#ccc"/><path fill="#ccc" d="M525.2 6.645h-6.645V0h-3.565v6.645h-6.648v3.568h6.648v6.645h3.565v-6.645h6.645V6.645zm154.142 359.556h-4.174v-4.172h-2.238v4.172h-4.172v2.239h4.172v4.172h2.238v-4.172h4.174v-2.239zm96.304-21.357h-3.119v-3.119h-1.675v3.119h-3.119v1.675h3.119v3.119h1.675v-3.119h3.119v-1.675z"/><circle cx="566.119" cy="108.717" r="11.611" opacity=".1" style="isolation:isolate"/><circle cx="476.924" cy="193.69" r="11.611" opacity=".1" style="isolation:isolate"/><circle cx="605.175" cy="310.33" r="11.611" opacity=".1" style="isolation:isolate"/><circle cx="566.119" cy="211.635" r="11.611" opacity=".1" style="isolation:isolate"/><circle cx="482.729" cy="275.496" r="11.611" opacity=".1" style="isolation:isolate"/><circle cx="628.397" cy="149.357" r="11.611" opacity=".1" style="isolation:isolate"/><circle cx="666.925" cy="227.996" r="11.611" opacity=".1" style="isolation:isolate"/><circle cx="566.119" cy="160.968" r="15.306" fill="#fff"/><path d="M566.119 138.8a21.639 21.639 0 00-21.64 21.64c0 11.95 21.64 51.195 21.64 51.195s21.639-39.244 21.639-51.195a21.639 21.639 0 00-21.64-21.64zm0 32.196a10.028 10.028 0 1110.028-10.028 10.028 10.028 0 01-10.028 10.028z" fill="#ccc"/><circle cx="482.729" cy="226.413" r="15.306" fill="#fff"/><path d="M482.73 204.246a21.639 21.639 0 00-21.64 21.639c0 11.95 21.64 51.195 21.64 51.195s21.638-39.244 21.638-51.195a21.639 21.639 0 00-21.639-21.64zm0 32.194a10.028 10.028 0 1110.027-10.027 10.028 10.028 0 01-10.028 10.027z" fill="#ccc"/><circle cx="666.925" cy="178.912" r="15.306" fill="#fff"/><path d="M666.925 156.745a21.639 21.639 0 00-21.639 21.64c0 11.95 21.639 51.194 21.639 51.194s21.639-39.244 21.639-51.194a21.639 21.639 0 00-21.639-21.64zm0 32.195a10.028 10.028 0 1110.028-10.028 10.028 10.028 0 01-10.028 10.028z" fill="#ccc"/><circle cx="566.119" cy="58.05" r="15.306" fill="#fff"/><path d="M566.119 35.884a21.64 21.64 0 00-21.64 21.639c0 11.95 21.64 51.194 21.64 51.194s21.639-39.244 21.639-51.194a21.639 21.639 0 00-21.64-21.64zm0 32.194a10.028 10.028 0 1110.028-10.028 10.028 10.028 0 01-10.028 10.028z" fill="#ccc"/><circle cx="605.175" cy="261.246" r="15.306" fill="#fff"/><path d="M605.175 239.08a21.639 21.639 0 00-21.64 21.638c0 11.951 21.64 51.195 21.64 51.195s21.639-39.244 21.639-51.195a21.639 21.639 0 00-21.64-21.639zm0 32.194a10.028 10.028 0 1110.027-10.028 10.028 10.028 0 01-10.027 10.028z" fill="#3f3d56"/><circle cx="476.924" cy="143.551" r="15.306" fill="#fff"/><path d="M476.924 121.384a21.639 21.639 0 00-21.64 21.64c0 11.95 21.64 51.194 21.64 51.194s21.639-39.244 21.639-51.195a21.639 21.639 0 00-21.64-21.639zm0 32.195a10.028 10.028 0 1110.028-10.028 10.028 10.028 0 01-10.028 10.028z" fill="#3f3d56"/><circle cx="628.397" cy="100.801" r="15.306" fill="#fff"/><path d="M628.397 78.634a21.639 21.639 0 00-21.64 21.639c0 11.95 21.64 51.195 21.64 51.195s21.639-39.244 21.639-51.195a21.639 21.639 0 00-21.64-21.64zm0 32.195a10.028 10.028 0 1110.028-10.028 10.028 10.028 0 01-10.028 10.027z" fill="#3f3d56"/><path fill="#ffb8b8" d="M188.862 569.715l12.182-1.383.465-47.644-17.979 2.041 5.332 46.986z"/><path d="M225.82 576.978l-38.285 4.344-1.678-14.792 23.493-2.665a14.887 14.887 0 0116.47 13.113z" fill="#2f2e41"/><path fill="#ffb8b8" d="M63.582 568.954l12.26-.001 5.832-47.288-18.094.001.002 47.288z"/><path d="M99.486 580.336l-38.53.002-.001-14.887h23.644a14.887 14.887 0 0114.887 14.885zm52.058-222.85l7 22.77 38 82.23 10 78-23 1-14-72-48-52-42 136-19-2s16-176 38-194c0 0 36-17 53 0z" fill="#2f2e41"/><circle cx="120.492" cy="234.679" r="24.561" fill="#ffb8b8"/><path d="M154.044 361.986s3-102-39-95-24.5 105.5-24.5 105.5 9 18 31-2 32.5-8.5 32.5-8.5z" fill="#ccc"/><path opacity=".2" d="M96.044 309.986l9.883 37.883 15.057 15.058-20.94-6.941-4-46z"/><path d="M154.354 405.124a10.056 10.056 0 01-5.277-14.488l-23.359-27.043 18.414-2.397 19.36 26.048a10.11 10.11 0 01-9.138 17.88z" fill="#ffb8b8"/><path d="M125.914 287.762l2.63 51.724 31 40-13 10-42-42s-15-51-4-66c4.125-5.625 8.671-7.172 12.744-6.908a13.78 13.78 0 0112.626 13.184z" fill="#ccc"/><path d="M117.571 260.486a1.014 1.014 0 00-.143-1.616 14.283 14.283 0 011.376-25.038c7.221-3.443 17.006-.764 22.344-7.38a12.409 12.409 0 002.303-10.077c-1.152-6.25-5.85-10.89-11.11-14.07a40.429 40.429 0 00-61.09 39.134c.68 6.014 2.535 12.758-1.04 17.641-3.148 4.297-9.089 5.103-14.307 6.171-11.194 2.29-21.992 7.574-29.588 16.108s-11.648 20.509-9.358 31.702 11.478 21.03 22.77 22.765c9.192 1.412 18.683-2.492 25.433-8.888S76.178 311.902 78.87 303c3.194-10.566 4.454-21.95 10.22-31.362 5.644-9.21 17.805-15.812 27.336-11.016a1.022 1.022 0 001.146-.137z" fill="#2f2e41"/><path d="M308 581.582H1a1 1 0 010-2h307a1 1 0 110 2z" fill="#3f3d56"/></svg>